<svg xmlns="http://www.w3.org/2000/svg" xmlns:xlink="http://www.w3.org/1999/xlink" width="500" zoomAndPan="magnify" viewBox="0 0 375 374.999991" height="500" preserveAspectRatio="xMidYMid meet" version="1.0"><path fill="#77b05d" d="M 298.441406 374.941406 C 292.082031 374.910156 286.003906 373.585938 280.207031 370.96875 C 272.636719 367.742188 265.148438 364.339844 257.742188 360.753906 C 250.335938 357.171875 243.015625 353.414062 235.789062 349.480469 C 228.5625 345.546875 221.433594 341.441406 214.402344 337.167969 C 207.371094 332.894531 200.445312 328.453125 193.625 323.851562 C 186.808594 319.246094 180.101562 314.480469 173.511719 309.550781 C 166.921875 304.625 160.453125 299.546875 154.101562 294.3125 C 147.753906 289.074219 141.535156 283.691406 135.445312 278.160156 C 129.355469 272.625 123.398438 266.953125 117.578125 261.132812 C 111.761719 255.316406 106.082031 249.363281 100.546875 243.273438 C 95.015625 237.1875 89.628906 230.96875 84.390625 224.621094 C 79.152344 218.277344 74.070312 211.808594 69.140625 205.21875 C 64.214844 198.628906 59.445312 191.925781 54.835938 185.109375 C 50.230469 178.292969 45.789062 171.367188 41.511719 164.339844 C 37.234375 157.308594 33.128906 150.179688 29.191406 142.953125 C 25.257812 135.730469 21.496094 128.414062 17.910156 121.007812 C 14.324219 113.601562 10.917969 106.113281 7.6875 98.546875 C 6.753906 96.394531 5.988281 94.1875 5.386719 91.921875 C 4.785156 89.65625 4.355469 87.355469 4.097656 85.027344 C 3.84375 82.695312 3.761719 80.359375 3.859375 78.015625 C 3.957031 75.675781 4.226562 73.351562 4.671875 71.050781 C 5.117188 68.75 5.730469 66.492188 6.515625 64.285156 C 7.300781 62.074219 8.246094 59.9375 9.355469 57.871094 C 10.460938 55.804688 11.714844 53.832031 13.117188 51.953125 C 14.523438 50.074219 16.058594 48.3125 17.726562 46.664062 L 55.597656 9.050781 C 56.277344 8.347656 56.992188 7.683594 57.742188 7.054688 C 58.488281 6.421875 59.265625 5.832031 60.074219 5.28125 C 60.882812 4.726562 61.714844 4.21875 62.574219 3.75 C 63.429688 3.28125 64.3125 2.855469 65.210938 2.472656 C 66.113281 2.09375 67.03125 1.757812 67.964844 1.46875 C 68.898438 1.179688 69.84375 0.9375 70.804688 0.746094 C 71.761719 0.550781 72.726562 0.40625 73.703125 0.308594 C 74.675781 0.210938 75.648438 0.160156 76.628906 0.160156 C 77.605469 0.160156 78.582031 0.210938 79.554688 0.308594 C 80.527344 0.40625 81.492188 0.550781 82.453125 0.746094 C 83.410156 0.9375 84.355469 1.179688 85.292969 1.46875 C 86.226562 1.757812 87.144531 2.09375 88.042969 2.472656 C 88.945312 2.855469 89.824219 3.28125 90.683594 3.75 C 91.542969 4.21875 92.375 4.726562 93.183594 5.28125 C 93.988281 5.832031 94.765625 6.421875 95.515625 7.054688 C 96.261719 7.683594 96.976562 8.347656 97.660156 9.050781 L 147.21875 58.355469 C 147.914062 59.046875 148.570312 59.773438 149.195312 60.53125 C 149.816406 61.285156 150.398438 62.070312 150.945312 62.886719 C 151.488281 63.699219 151.992188 64.539062 152.457031 65.402344 C 152.917969 66.265625 153.335938 67.148438 153.710938 68.054688 C 154.089844 68.960938 154.417969 69.878906 154.703125 70.816406 C 154.988281 71.753906 155.226562 72.703125 155.417969 73.664062 C 155.609375 74.625 155.753906 75.59375 155.847656 76.566406 C 155.945312 77.542969 155.992188 78.519531 155.992188 79.5 C 155.992188 80.480469 155.945312 81.457031 155.847656 82.429688 C 155.753906 83.40625 155.609375 84.375 155.417969 85.335938 C 155.226562 86.296875 154.988281 87.246094 154.703125 88.179688 C 154.417969 89.117188 154.089844 90.039062 153.710938 90.945312 C 153.335938 91.847656 152.917969 92.734375 152.457031 93.597656 C 151.992188 94.460938 151.488281 95.300781 150.945312 96.113281 C 150.398438 96.925781 149.816406 97.714844 149.195312 98.46875 C 148.570312 99.226562 147.914062 99.949219 147.21875 100.640625 L 100.011719 147.851562 C 99.316406 148.539062 98.738281 149.316406 98.277344 150.179688 C 97.816406 151.042969 97.492188 151.953125 97.304688 152.914062 C 97.117188 153.875 97.074219 154.839844 97.179688 155.8125 C 97.285156 156.785156 97.527344 157.722656 97.914062 158.621094 C 100.847656 165.394531 104.089844 172.015625 107.648438 178.480469 C 111.203125 184.949219 115.054688 191.234375 119.207031 197.335938 C 123.355469 203.441406 127.78125 209.335938 132.484375 215.023438 C 137.191406 220.710938 142.152344 226.164062 147.371094 231.382812 C 152.589844 236.601562 158.042969 241.5625 163.730469 246.265625 C 169.414062 250.972656 175.3125 255.398438 181.414062 259.546875 C 187.519531 263.695312 193.804688 267.550781 200.269531 271.105469 C 206.738281 274.660156 213.359375 277.90625 220.132812 280.839844 C 221.007812 281.230469 221.925781 281.480469 222.878906 281.585938 C 223.832031 281.691406 224.78125 281.652344 225.722656 281.464844 C 226.664062 281.277344 227.554688 280.949219 228.394531 280.484375 C 229.238281 280.019531 229.988281 279.441406 230.648438 278.742188 L 278.109375 231.53125 C 279.484375 230.132812 280.980469 228.882812 282.597656 227.78125 C 284.21875 226.675781 285.929688 225.742188 287.734375 224.980469 C 289.542969 224.21875 291.402344 223.636719 293.324219 223.242188 C 295.242188 222.847656 297.183594 222.648438 299.140625 222.636719 C 301.117188 222.648438 303.074219 222.847656 305.011719 223.242188 C 306.949219 223.636719 308.828125 224.214844 310.652344 224.976562 C 312.472656 225.738281 314.207031 226.671875 315.84375 227.777344 C 317.484375 228.878906 319 230.132812 320.394531 231.53125 L 369.703125 280.839844 C 370.394531 281.53125 371.050781 282.257812 371.671875 283.015625 C 372.296875 283.773438 372.878906 284.558594 373.421875 285.375 C 373.96875 286.1875 374.46875 287.027344 374.933594 287.890625 C 375.394531 288.757812 375.8125 289.640625 376.1875 290.546875 C 376.5625 291.453125 376.890625 292.375 377.175781 293.3125 C 377.460938 294.25 377.699219 295.199219 377.890625 296.160156 C 378.082031 297.121094 378.222656 298.089844 378.320312 299.066406 C 378.417969 300.039062 378.464844 301.015625 378.464844 301.996094 C 378.464844 302.976562 378.417969 303.953125 378.320312 304.929688 C 378.222656 305.90625 378.082031 306.875 377.890625 307.835938 C 377.699219 308.796875 377.460938 309.746094 377.175781 310.683594 C 376.890625 311.621094 376.5625 312.542969 376.1875 313.449219 C 375.8125 314.351562 375.394531 315.238281 374.933594 316.101562 C 374.46875 316.96875 373.96875 317.804688 373.421875 318.621094 C 372.878906 319.4375 372.296875 320.222656 371.671875 320.980469 C 371.050781 321.738281 370.394531 322.460938 369.703125 323.15625 L 332.085938 361.023438 C 329.867188 363.21875 327.457031 365.175781 324.855469 366.902344 C 322.253906 368.625 319.511719 370.085938 316.628906 371.277344 C 313.742188 372.46875 310.773438 373.375 307.710938 373.992188 C 304.652344 374.605469 301.5625 374.921875 298.441406 374.941406 Z M 298.441406 374.941406 " fill-opacity="1" fill-rule="nonzero"/></svg>